<?xml version="1.0" encoding="UTF-8"?><svg id="_イヤー_1" xmlns="http://www.w3.org/2000/svg" viewBox="0 0 80 80"><path d="M72.43,31.69h-1.43v-5.32c0-3.15-2.55-5.7-5.7-5.7h-20.65c-1.85,0-3.58,.9-4.65,2.41-1.07-1.5-2.8-2.4-4.65-2.4h-12.98c-.58,.02-1.04,.5-1.02,1.09,.02,.56,.46,1,1.02,1.02h12.98c1.98,0,3.59,1.61,3.59,3.59v10.55l-.07-.06c-1.27-1.17-2.93-1.83-4.66-1.84H16.65c-.11-1.43-1.04-2.65-2.39-3.13-.38-.13-.77-.2-1.17-.2h-1.99v-5.31c0-1.98,1.6-3.6,3.59-3.6h3.47c.58-.02,1.04-.5,1.02-1.09-.02-.56-.46-1-1.02-1.02h-3.46c-3.15,0-5.7,2.55-5.7,5.7v5.32h-1.43c-1.97,0-3.57,1.6-3.57,3.57v11.01c0,4.1,3.33,7.43,7.43,7.43h.53l-1.16,3.11c-.57,1.6,.27,3.36,1.87,3.93,.32,.11,.65,.17,.99,.18h1.7c.95,0,1.85-.45,2.43-1.21l4.55-6.01H57.66l4.55,6.01c.58,.76,1.48,1.21,2.43,1.21h1.7c1.7-.02,3.06-1.42,3.04-3.12,0-.34-.06-.67-.18-.99l-1.16-3.11h.53c4.1,0,7.42-3.33,7.43-7.43v-11.01c0-1.97-1.6-3.57-3.57-3.57Zm-31.38-5.32c0-1.98,1.61-3.59,3.59-3.59h20.65c1.98,0,3.59,1.61,3.59,3.59v5.32h-1.98c-1.43,.02-2.72,.88-3.29,2.19-.15,.36-.24,.75-.27,1.14h-17.57c-1.76,0-3.45,.69-4.72,1.9v-10.55h0Zm-24.39,10.76h17.56c2.61,0,4.72,2.12,4.72,4.72v1.5H16.66v-6.22Zm-.55,21.31c-.18,.23-.46,.37-.75,.37h-1.7c-.52,0-.94-.44-.94-.96,0-.1,.02-.21,.06-.31l1.43-3.84h5.48l-3.58,4.74Zm50.23,.37h-1.7c-.29,0-.57-.14-.75-.37l-3.59-4.74h5.48l1.43,3.84c.18,.49-.08,1.04-.57,1.21-.1,.03-.2,.05-.3,.05h0Zm2.23-7.22H11.43c-2.94,0-5.32-2.38-5.32-5.32v-11.01c0-.81,.65-1.46,1.46-1.46h5.53c.81,0,1.46,.65,1.46,1.46v9.15c0,.58,.47,1.05,1.06,1.05H54.35c.58-.02,1.04-.5,1.02-1.09-.02-.56-.46-1-1.02-1.02h-13.29v-1.5c0-2.61,2.12-4.72,4.72-4.72h17.56v6.22h-4.77c-.58-.02-1.07,.44-1.09,1.02-.02,.58,.44,1.07,1.02,1.09,.02,0,.04,0,.07,0h5.83c.58,0,1.05-.47,1.06-1.05v-9.15c0-.81,.65-1.46,1.46-1.46h5.53c.81,0,1.46,.65,1.46,1.46v11.01h0c0,2.94-2.38,5.32-5.32,5.32h0Z"/><rect x="17.56" y="20.67" width="6.81" height="2.11"/><rect x="53.49" y="43.36" width="6.81" height="2.11"/><polygon points="59.37 52.72 65.99 52.72 68.17 58.07 66.7 59.87 62.82 59.87 59.37 52.72"/><polygon points="14.05 52.72 20.61 52.72 16.21 59.87 12.72 59.87 11.26 57.92 14.05 52.72"/></svg>