<svg xmlns="http://www.w3.org/2000/svg" width="83" height="40" viewBox="0 0 83 40"><g transform="translate(-270 -35)"><g transform="translate(270 35)" fill="#fff" stroke="#888" stroke-width="1"><rect width="83" height="40" rx="20" stroke="none"/><rect x="0.5" y="0.5" width="82" height="39" rx="19.5" fill="none"/></g><rect width="20" height="2" transform="translate(286 51)" fill="#101010"/><rect width="20" height="2" transform="translate(286 57)" fill="#101010"/><g transform="translate(-3)"><g transform="translate(320 43)" fill="none" stroke="#000" stroke-width="1.5"><circle cx="12" cy="12" r="12" stroke="none"/><circle cx="12" cy="12" r="11.25" fill="none"/></g><g transform="translate(321.458 43.458)"><rect width="23" height="23" transform="translate(-0.458 -0.458)" fill="none"/></g><circle cx="3.5" cy="3.5" r="3.5" transform="translate(328.5 48.5)" fill="none" stroke="#101010" stroke-linecap="round" stroke-linejoin="round" stroke-width="1.5"/><path d="M8.93,32.35V31.194c0-2.23,2.088-4.044,4.664-4.044h5.671c2.577,0,4.664,1.814,4.664,4.044V32.35" transform="translate(315.57 30.85)" fill="none" stroke="#101010" stroke-linecap="round" stroke-linejoin="round" stroke-width="1.5"/></g></g></svg>