<svg xmlns="http://www.w3.org/2000/svg" width="50" height="50" viewBox="0 0 50 50"><g transform="translate(-128 -3945)"><circle cx="25" cy="25" r="25" transform="translate(128 3945)" fill="#fff"/><g transform="translate(142 3959)"><path d="M10.692,1.926c2.855,0,3.193.011,4.32.062A5.916,5.916,0,0,1,17,2.357a3.312,3.312,0,0,1,1.229.8,3.313,3.313,0,0,1,.8,1.229A5.915,5.915,0,0,1,19.4,6.371c.051,1.127.062,1.466.062,4.32s-.011,3.193-.062,4.32A5.917,5.917,0,0,1,19.027,17,3.541,3.541,0,0,1,17,19.027a5.915,5.915,0,0,1-1.985.368c-1.127.051-1.465.062-4.32.062s-3.193-.011-4.32-.062a5.917,5.917,0,0,1-1.985-.368,3.312,3.312,0,0,1-1.229-.8A3.313,3.313,0,0,1,2.357,17a5.915,5.915,0,0,1-.368-1.985c-.051-1.127-.062-1.466-.062-4.32s.011-3.193.062-4.32a5.916,5.916,0,0,1,.368-1.985,3.312,3.312,0,0,1,.8-1.229,3.313,3.313,0,0,1,1.229-.8,5.915,5.915,0,0,1,1.985-.368c1.127-.051,1.466-.062,4.32-.062m0-1.926c-2.9,0-3.268.012-4.408.064a7.847,7.847,0,0,0-2.6.5A5.241,5.241,0,0,0,1.795,1.795,5.241,5.241,0,0,0,.561,3.688a7.844,7.844,0,0,0-.5,2.6C.012,7.424,0,7.788,0,10.692S.012,13.96.064,15.1a7.847,7.847,0,0,0,.5,2.6,5.241,5.241,0,0,0,1.233,1.894,5.241,5.241,0,0,0,1.894,1.233,7.848,7.848,0,0,0,2.6.5c1.14.052,1.5.064,4.408.064s3.268-.012,4.408-.064a7.847,7.847,0,0,0,2.6-.5A5.467,5.467,0,0,0,20.822,17.7a7.848,7.848,0,0,0,.5-2.6c.052-1.14.064-1.5.064-4.408s-.012-3.268-.064-4.408a7.847,7.847,0,0,0-.5-2.6,5.241,5.241,0,0,0-1.233-1.894A5.241,5.241,0,0,0,17.7.561a7.848,7.848,0,0,0-2.6-.5C13.96.012,13.6,0,10.692,0h0Z" transform="translate(0 0)"/><path d="M128.046,122.556a5.49,5.49,0,1,0,5.49,5.49A5.49,5.49,0,0,0,128.046,122.556Zm0,9.054a3.564,3.564,0,1,1,3.564-3.564A3.564,3.564,0,0,1,128.046,131.61Z" transform="translate(-117.354 -117.355)"/><circle cx="1.283" cy="1.283" r="1.283" transform="translate(15.116 3.702)"/></g></g></svg>