<?xml version="1.0" encoding="UTF-8"?><svg id="_イヤー_1" xmlns="http://www.w3.org/2000/svg" viewBox="0 0 80 80"><path d="M39.99,68.6c-.79,0-1.58-.03-2.38-.09-7.72-.59-14.37-3.88-18.72-9.26-6.39-8.45-5.91-20.36-5.55-29.06,.04-.96,.08-1.87,.1-2.74,.02-.54,.46-.97,1-.97h.03c.55,.02,.99,.48,.97,1.03-.03,.87-.06,1.8-.1,2.76-.34,8.39-.81,19.89,5.13,27.75,3.99,4.92,10.14,7.95,17.3,8.49,7.72,.6,15.49-1.92,20.78-6.73,6.18-5.61,8.66-13.2,7.82-23.88-.79-10.03-4.62-16.67-11.72-20.29-5.86-2.99-17.42-3.28-24.66,1.07-8.94,5.38-12.26,15.43-9.61,29.06,1.13,5.81,4.34,10.75,8.82,13.55,4.63,2.89,10.54,3.5,17.1,1.74,6.8-1.82,11.45-5.95,13.82-12.28,2.37-6.32,1.7-12.82,1.3-15.32-.62-3.89-2-8.83-7.19-12.44-4.7-3.27-14.39-4.3-20.78-.57-3.36,1.96-5.99,5.25-7.59,9.51-3.19,7.79-2.23,17.04,2.31,22.54,5.7,5.15,13.34,6.34,19.97,3.09,6.93-3.4,10.19-11.38,9.24-16.82-.42-2.41-1.99-6.37-7.79-5.75-.55,.06-1.04-.34-1.1-.89-.06-.55,.34-1.04,.89-1.1,5.34-.57,9.06,2.19,9.97,7.39,1.08,6.16-2.56,15.16-10.33,18.96-7.39,3.63-15.92,2.3-22.25-3.46-.03-.03-.07-.06-.1-.1-5.03-6.04-6.13-16.16-2.68-24.61,1.75-4.67,4.68-8.31,8.44-10.51,6.48-3.78,16.98-3.48,22.93,.66,5.82,4.04,7.34,9.48,8.03,13.77,1.79,11.25-1.49,25.81-16.58,29.84-7.11,1.9-13.57,1.22-18.68-1.98-4.95-3.09-8.49-8.51-9.73-14.86-3.57-18.36,3.76-27.08,10.54-31.16,7.79-4.69,20.27-4.37,26.6-1.14,7.77,3.96,11.95,11.13,12.8,21.91,.89,11.36-1.8,19.47-8.47,25.52-5.14,4.67-12.45,7.33-19.9,7.33Z"/><path d="M62.8,38.3c-.5,0-.94-.38-.99-.89-.41-3.82-2.84-6.08-4.8-7.3-2.99-1.86-6.27-2.21-7.19-1.88-.52,.19-1.09-.08-1.28-.6-.19-.52,.08-1.09,.6-1.28,1.71-.62,5.6,0,8.93,2.06,2.34,1.46,5.23,4.16,5.73,8.78,.06,.55-.34,1.04-.89,1.1-.04,0-.07,0-.11,0Z"/><g><rect x="40.27" y="26.07" width="9.21" height="7.21"/><path d="M49.48,34.28h-9.21c-.55,0-1-.45-1-1v-7.21c0-.55,.45-1,1-1h9.21c.55,0,1,.45,1,1v7.21c0,.55-.45,1-1,1Zm-8.21-2h7.21v-5.21h-7.21v5.21Z"/></g><g><rect x="35" y="27.38" width="5.27" height="4.6"/><path d="M40.27,32.98h-5.27c-.55,0-1-.45-1-1v-4.6c0-.55,.45-1,1-1h5.27c.55,0,1,.45,1,1v4.6c0,.55-.45,1-1,1Zm-4.27-2h3.27v-2.6h-3.27v2.6Z"/></g><g><rect x="11.48" y="19.27" width="9.21" height="7.21" transform="translate(38.96 6.8) rotate(90)"/><path d="M19.69,28.48h-7.21c-.55,0-1-.45-1-1v-9.21c0-.55,.45-1,1-1h7.21c.55,0,1,.45,1,1v9.21c0,.55-.45,1-1,1Zm-6.21-2h5.21v-7.21h-5.21v7.21Z"/></g><g><rect x="13.44" y="13.34" width="5.27" height="4.6" transform="translate(31.72 -.44) rotate(90)"/><path d="M18.38,19.27h-4.6c-.55,0-1-.45-1-1v-5.27c0-.55,.45-1,1-1h4.6c.55,0,1,.45,1,1v5.27c0,.55-.45,1-1,1Zm-3.6-2h2.6v-3.27h-2.6v3.27Z"/></g></svg>