<svg xmlns="http://www.w3.org/2000/svg" xmlns:xlink="http://www.w3.org/1999/xlink" width="610.497" height="64.236" viewBox="0 0 610.497 64.236"><defs><clipPath id="a"><rect width="609.747" height="64.236" fill="none" stroke="#fff" stroke-width="1.5"/></clipPath></defs><g transform="translate(0.75)"><path d="M39.073,1.65V26.458H12.05V1.65H0V63.937H12.05V37.091H39.073V63.937h12.05V1.65Z" transform="translate(0 -0.675)" fill="none" stroke="#fff" stroke-width="1.5"/><rect width="12.05" height="62.287" transform="translate(63.881 0.975)" fill="none" stroke="#fff" stroke-width="1.5"/><path d="M142.649,12.372H162.5V63.938h12.138V12.372h19.847V1.651H142.649Z" transform="translate(-58.39 -0.676)" fill="none" stroke="#fff" stroke-width="1.5"/><path d="M295.5,12.372h19.847V63.938h12.138V12.372h19.847V1.651H295.5Z" transform="translate(-120.954 -0.676)" fill="none" stroke="#fff" stroke-width="1.5"/><path d="M436.42,26.459H409.4V1.65h-12.05V63.937H409.4V37.091H436.42V63.937h12.049V1.65H436.42Z" transform="translate(-162.644 -0.676)" fill="none" stroke="#fff" stroke-width="1.5"/><path d="M517.546,37.357H545.81V26.991H517.546V12.283H548.38V1.651H505.5V63.937h43.326V53.305H517.546Z" transform="translate(-206.912 -0.676)" fill="none" stroke="#fff" stroke-width="1.5"/><g clip-path="url(#a)"><path d="M686.293,31.941a26.14,26.14,0,0,0-5.715-3.456q-3.1-1.372-6.29-2.437a58.052,58.052,0,0,1-5.8-2.259,14.773,14.773,0,0,1-4.209-2.747,5.48,5.48,0,0,1-1.6-4.12,5.228,5.228,0,0,1,2.392-4.562,11.454,11.454,0,0,1,6.557-1.64,14.559,14.559,0,0,1,6.512,1.418,19.326,19.326,0,0,1,5.627,4.43l7.974-7.974a23.607,23.607,0,0,0-8.373-6.2A27.26,27.26,0,0,0,671.807,0,26.35,26.35,0,0,0,661,2.126a17.565,17.565,0,0,0-7.531,6.114,16.6,16.6,0,0,0-2.747,9.658,17.825,17.825,0,0,0,1.551,7.974,14.579,14.579,0,0,0,4.209,5.138,26.653,26.653,0,0,0,5.759,3.367q3.1,1.329,6.247,2.348a53.609,53.609,0,0,1,5.759,2.215,12.642,12.642,0,0,1,4.209,2.968,6.628,6.628,0,0,1,1.595,4.607,5.882,5.882,0,0,1-2.747,5.139,13.094,13.094,0,0,1-7.442,1.86,17.928,17.928,0,0,1-8.816-1.994,21.249,21.249,0,0,1-6.424-5.626l-7.974,7.974a28.847,28.847,0,0,0,9.7,7.8,29.374,29.374,0,0,0,12.8,2.569q10.719,0,16.834-5.006T692.1,45.541a18.861,18.861,0,0,0-1.594-8.2,15.184,15.184,0,0,0-4.209-5.4" transform="translate(-264.687 0)" fill="none" stroke="#fff" stroke-width="1.5"/><path d="M774.859,4.044a23.35,23.35,0,0,0-10.677-2.393H739.64V63.938h12.05V40.9h12.492a23.372,23.372,0,0,0,10.677-2.392,18.359,18.359,0,0,0,7.487-6.823,19.437,19.437,0,0,0,2.747-10.454,19.216,19.216,0,0,0-2.747-10.411,18.461,18.461,0,0,0-7.487-6.777M771.67,26.5a8.774,8.774,0,0,1-3.588,3.367,10.989,10.989,0,0,1-5.139,1.2H751.69V11.486h11.252a10.982,10.982,0,0,1,5.139,1.2,8.784,8.784,0,0,1,3.588,3.366,10.012,10.012,0,0,1,1.285,5.183A10.186,10.186,0,0,1,771.67,26.5" transform="translate(-302.753 -0.676)" fill="none" stroke="#fff" stroke-width="1.5"/><path d="M881.733,9.215A30.486,30.486,0,0,0,871.5,2.393a34.975,34.975,0,0,0-25.429,0,30.488,30.488,0,0,0-10.234,6.822,32.644,32.644,0,0,0-6.867,10.234,31.551,31.551,0,0,0-2.481,12.537A32.044,32.044,0,0,0,846.2,61.756a33.879,33.879,0,0,0,25.34.044,30.432,30.432,0,0,0,10.233-6.867A32.888,32.888,0,0,0,888.6,44.655a31.9,31.9,0,0,0,2.481-12.581A31.905,31.905,0,0,0,888.6,19.492a32.516,32.516,0,0,0-6.867-10.278m-5.626,33.8a18.279,18.279,0,0,1-6.955,7.4,20,20,0,0,1-10.411,2.658,20.413,20.413,0,0,1-8.018-1.551,18.451,18.451,0,0,1-6.291-4.3A18.811,18.811,0,0,1,840.4,40.58a24.97,24.97,0,0,1-1.418-8.595,22.664,22.664,0,0,1,2.525-10.9,18.423,18.423,0,0,1,6.955-7.31,19.85,19.85,0,0,1,10.278-2.614,20.78,20.78,0,0,1,8.107,1.507,18.339,18.339,0,0,1,6.246,4.3,19.125,19.125,0,0,1,4.076,6.6,24,24,0,0,1,1.418,8.417,23.465,23.465,0,0,1-2.481,11.031" transform="translate(-338.302 0)" fill="none" stroke="#fff" stroke-width="1.5"/><path d="M996.37,1.65H944.538V12.371h19.847V63.937h12.138V12.371H996.37Z" transform="translate(-386.622 -0.676)" fill="none" stroke="#fff" stroke-width="1.5"/></g></g></svg>