<?xml version="1.0" encoding="UTF-8"?><svg id="_イヤー_1" xmlns="http://www.w3.org/2000/svg" viewBox="0 0 80 80"><defs><style>.cls-1{fill:none;}</style></defs><path class="cls-1" d="M25.07,40.16c-.59-.08-1.18-.13-1.77-.13-6.23,0-11.5,4.6-12.38,10.76-.08,.59-.12,1.18-.12,1.77,0,6.23,4.6,11.5,10.76,12.38,.59,.08,1.18,.12,1.77,.12,6.91,0,12.51-5.62,12.5-12.53,0-6.23-4.6-11.51-10.76-12.38h0Z"/><path class="cls-1" d="M28.71,21.78c1.8,.25,3.53,.92,5.04,1.93-.14-2.32-1.89-4.22-4.19-4.55h0c-2.13-.3-4.21,.83-5.12,2.78,.84-.19,1.7-.29,2.57-.29,.57,0,1.14,.04,1.7,.12Z"/><path class="cls-1" d="M28.44,23.72c-5.13-.73-9.99,2.55-11.23,7.58-.28,1.24-.79,2.96-1.41,4.88-.55,1.7-1.18,3.55-1.81,5.32,6.1-5.15,15.22-4.39,20.37,1.71,.78,.93,1.45,1.95,1.98,3.05,.02-.32,.04-.64,.06-.97,.26-4.08,.57-8.77,.71-11.18,0-.13,0-.27,0-.4,0-5.03-3.71-9.29-8.69-9.99Z"/><path class="cls-1" d="M38.99,35.41c-.26,4.17-.76,11.9-1,15.55h4.71c-.24-3.66-.74-11.38-1-15.55h-2.71Z"/><path class="cls-1" d="M53.68,21.66c.86,0,1.72,.1,2.57,.29-.8-1.72-2.53-2.83-4.43-2.83-.23,0-.46,.02-.69,.05-2.3,.33-4.05,2.23-4.19,4.55,1.51-1.02,3.23-1.68,5.04-1.93,.56-.08,1.13-.12,1.7-.12h0Z"/><path class="cls-1" d="M63.48,31.28c-1.35-5.42-6.83-8.72-12.25-7.37-4.5,1.12-7.66,5.16-7.67,9.79,0,.13,0,.27,0,.4,.16,2.61,.5,7.86,.78,12.15,3.47-7.19,12.11-10.21,19.3-6.74,1.1,.53,2.12,1.19,3.05,1.98-.62-1.77-1.25-3.61-1.8-5.31-.62-1.93-1.14-3.66-1.42-4.9Z"/><path d="M71.85,52.56c0-1.26-.16-2.52-.5-3.73l.09-.03s-.31-.83-.8-2.15c-.73-1.98-1.85-5.08-2.89-8.1s-1.99-6.01-2.36-7.69v-.02c-.89-3.62-3.42-6.63-6.83-8.14-.02-.1-.05-.2-.07-.29v-.02c-.92-3.67-4.64-5.91-8.31-4.99-3.04,.76-5.18,3.49-5.19,6.62,0,.09,0,.19,0,.28v.02c.02,.28,.04,.63,.06,1.01-2.13,2.18-3.34,5.09-3.41,8.14h-2.57c-.06-3.05-1.28-5.96-3.41-8.14,.02-.38,.05-.73,.06-1.01v-.02c0-.09,0-.18,0-.28,0-3.41-2.51-6.3-5.89-6.77h0c-.32-.05-.65-.07-.97-.07-3.15,0-5.89,2.15-6.64,5.21v.02c-.02,.09-.04,.19-.07,.3-3.42,1.51-5.94,4.51-6.83,8.14v.02c-.25,1.12-.75,2.83-1.37,4.73-.92,2.86-2.1,6.17-3.03,8.76-.47,1.3-.88,2.41-1.18,3.21-.29,.79-.47,1.26-.47,1.26l.09,.03c-.15,.55-.27,1.12-.35,1.69-1.12,7.91,4.38,15.23,12.29,16.35,7.91,1.12,15.23-4.38,16.35-12.29h0c.07-.53,.12-1.06,.13-1.59h.09v-.07h4.96v.07h.1c.2,7.81,6.61,14.04,14.43,14.02,.36,0,.73-.01,1.1-.04,.48-.04,.83-.46,.8-.93,0-.06-.02-.12-.03-.18v-.03c-.15-.49-.61-.81-1.12-.79-.25,.02-.5,.02-.74,.02-6.91-.01-12.51-5.63-12.49-12.54,.01-6.22,4.6-11.5,10.76-12.37,.59-.08,1.18-.13,1.77-.13,6.23,.01,11.5,4.6,12.38,10.76,.08,.59,.12,1.18,.12,1.77,0,5.04-3.04,9.59-7.69,11.54-.48,.21-.72,.75-.56,1.24h0c.15,.49,.68,.76,1.17,.61,.03,0,.06-.02,.09-.03,5.41-2.24,8.93-7.51,8.94-13.36ZM28.87,19.12c.23,0,.46,.02,.69,.05h0c2.3,.33,4.05,2.23,4.19,4.55-1.51-1.02-3.23-1.68-5.04-1.93-.56-.08-1.13-.12-1.7-.12-.86,0-1.72,.1-2.57,.29,.8-1.72,2.53-2.83,4.43-2.83h0Zm6.84,35.18c-.87,6.17-6.15,10.75-12.37,10.76-.59,0-1.19-.04-1.77-.12-6.17-.87-10.75-6.15-10.76-12.38,0-.59,.04-1.18,.12-1.77,.87-6.17,6.15-10.75,12.38-10.76,6.91-.01,12.52,5.57,12.53,12.48,0,.6-.04,1.2-.13,1.79Zm1.41-20.2c-.15,2.42-.45,7.1-.71,11.18-.02,.33-.04,.65-.06,.97-3.47-7.19-12.11-10.21-19.3-6.74-1.1,.53-2.12,1.19-3.05,1.98,.62-1.77,1.25-3.61,1.81-5.32,.62-1.92,1.14-3.64,1.41-4.88,1.34-5.42,6.82-8.72,12.24-7.38,4.51,1.12,7.67,5.16,7.68,9.8,0,.14,0,.27,0,.4h0Zm.87,16.85c.24-3.66,.74-11.38,1-15.55h2.71c.26,4.17,.76,11.9,1,15.55h-4.71Zm13.13-31.8c.23-.03,.46-.05,.69-.05,1.9,0,3.63,1.11,4.43,2.83-.84-.19-1.7-.28-2.57-.29-.57,0-1.14,.04-1.7,.12-1.8,.25-3.53,.91-5.04,1.93,.14-2.31,1.89-4.21,4.18-4.54h0Zm6.27,18.9c-5.56,0-10.62,3.17-13.04,8.17-.28-4.29-.61-9.54-.78-12.15,0-.13,0-.27,0-.4,0-5.58,4.54-10.1,10.12-10.09,4.64,0,8.67,3.17,9.79,7.67,.28,1.24,.79,2.97,1.42,4.9,.55,1.7,1.18,3.55,1.8,5.31-2.6-2.2-5.9-3.41-9.31-3.41h0Z"/><polygon points="45.97 24.53 47.58 19.12 52.46 18.18 55.93 19.85 57.09 22.67 45.97 24.53"/><polygon points="23 22.44 25.56 18.53 30.04 18.18 33.49 20.55 34.64 24.53 23 22.44"/><path d="M23.32,38.12c-7.98,0-14.48,6.49-14.48,14.48s6.49,14.48,14.48,14.48,14.48-6.49,14.48-14.48-6.49-14.48-14.48-14.48Zm-.1,21.74c-4,0-7.25-3.25-7.25-7.25s3.25-7.25,7.25-7.25,7.25,3.25,7.25,7.25-3.25,7.25-7.25,7.25Z"/><path d="M57.44,38.12c-7.98,0-14.48,6.49-14.48,14.48s6.49,14.48,14.48,14.48,14.48-6.49,14.48-14.48-6.49-14.48-14.48-14.48Zm-.1,21.74c-4,0-7.25-3.25-7.25-7.25s3.25-7.25,7.25-7.25,7.25,3.25,7.25,7.25-3.25,7.25-7.25,7.25Z"/></svg>