<?xml version="1.0" encoding="UTF-8"?><svg id="_イヤー_1" xmlns="http://www.w3.org/2000/svg" viewBox="0 0 80 80"><path d="M40,66.84c-1.88,0-3.77-.72-5.2-2.15-2.87-2.87-2.87-7.54,0-10.41s7.54-2.87,10.41,0,2.87,7.54,0,10.41c-1.43,1.43-3.32,2.15-5.2,2.15Zm0-12.71c-1.37,0-2.74,.52-3.79,1.57-2.09,2.09-2.09,5.49,0,7.58,2.09,2.09,5.49,2.09,7.58,0,2.09-2.09,2.09-5.49,0-7.58-1.04-1.04-2.42-1.57-3.79-1.57Z"/><path d="M57.99,42.5c-.26,0-.51-.1-.71-.29-9.53-9.53-25.03-9.53-34.56,0-.39,.39-1.02,.39-1.41,0l-4.5-4.5c-.39-.39-.39-1.02,0-1.41,6.2-6.2,14.43-9.61,23.19-9.61s16.99,3.41,23.19,9.61c.39,.39,.39,1.02,0,1.41l-4.5,4.5c-.2,.2-.45,.29-.71,.29Zm-17.99-9.44c6.46,0,12.92,2.34,17.97,7.04l3.08-3.08c-5.73-5.38-13.17-8.33-21.06-8.33s-15.33,2.95-21.06,8.33l3.08,3.08c5.05-4.69,11.51-7.04,17.97-7.04Z"/><g><path d="M66.98,32.5l4.5-4.5c-17.4-17.4-45.55-17.4-62.95,0l4.5,4.5c14.91-14.91,39.04-14.91,53.96,0Z"/><path d="M66.98,33.5c-.26,0-.51-.1-.71-.29-14.49-14.49-38.06-14.49-52.54,0-.39,.39-1.02,.39-1.41,0l-4.5-4.5c-.39-.39-.39-1.02,0-1.41,17.74-17.75,46.62-17.75,64.36,0,.39,.39,.39,1.02,0,1.41l-4.5,4.5c-.2,.2-.45,.29-.71,.29Zm-26.98-13.16c9.72,0,19.43,3.58,26.97,10.75l3.08-3.08c-16.78-16.03-43.33-16.03-60.11,0l3.08,3.08c7.54-7.17,17.25-10.75,26.97-10.75Z"/></g><g><path d="M48.99,50.49l4.5-4.5c-7.46-7.46-19.52-7.46-26.98,0l4.5,4.5c4.97-4.97,13.01-4.97,17.99,0Z"/><path d="M48.99,50.99c-.13,0-.26-.05-.35-.15-2.31-2.31-5.38-3.58-8.64-3.58s-6.33,1.27-8.64,3.58c-.2,.2-.51,.2-.71,0l-4.5-4.5c-.2-.2-.2-.51,0-.71,7.63-7.63,20.05-7.63,27.69,0,.09,.09,.15,.22,.15,.35s-.05,.26-.15,.35l-4.5,4.5c-.1,.1-.23,.15-.35,.15Zm-8.99-4.73c3.36,0,6.53,1.25,8.99,3.53l3.79-3.79c-7.15-6.78-18.41-6.78-25.55,0l3.79,3.79c2.45-2.28,5.62-3.53,8.99-3.53Z"/></g></svg>