<svg xmlns="http://www.w3.org/2000/svg" width="43.123" height="70.573" viewBox="0 0 43.123 70.573"><g transform="translate(-716.617 -7070.427)"><path d="M202.846,0,166.357,13.279V56.4l6.634,4.22v9.952L182.942,57l26.538-9.659V4.218Z" transform="translate(550.26 7070.427)" fill="#0f0f0f"/><path d="M182.988,46.118a5.252,5.252,0,0,1-3.788.106,5.147,5.147,0,0,1-2.691-2.577,10.835,10.835,0,0,1-1-5,16.037,16.037,0,0,1,.985-5.679,14.044,14.044,0,0,1,2.665-4.5,9.321,9.321,0,0,1,3.751-2.626,5.354,5.354,0,0,1,3.814-.127,4.993,4.993,0,0,1,2.664,2.558,11.034,11.034,0,0,1,.974,4.993,16.376,16.376,0,0,1-.974,5.717,13.828,13.828,0,0,1-2.651,4.507,9.318,9.318,0,0,1-3.752,2.625m-.05-3.481a4.869,4.869,0,0,0,2.1-1.505,7.57,7.57,0,0,0,1.376-2.727,13.672,13.672,0,0,0,.493-3.876,10.217,10.217,0,0,0-.493-3.5,2.836,2.836,0,0,0-1.389-1.721,2.757,2.757,0,0,0-2.109.039,4.873,4.873,0,0,0-2.072,1.483,7.419,7.419,0,0,0-1.376,2.7,13.544,13.544,0,0,0-.493,3.863,10.314,10.314,0,0,0,.493,3.53,2.913,2.913,0,0,0,1.376,1.739,2.656,2.656,0,0,0,2.1-.021" transform="translate(550.26 7070.427)" fill="#fff"/><path d="M191.627,35.722l6.087-14.954,3.789-1.38-6.19,14.992Zm0,2.24v-2.24l1.287-1.532,12.73-4.633v3.3Zm8.41,1.644V27.09l3.385-1.233V38.374Z" transform="translate(550.26 7070.427)" fill="#fff"/></g></svg>