<?xml version="1.0" encoding="UTF-8"?><svg id="_イヤー_1" xmlns="http://www.w3.org/2000/svg" viewBox="0 0 80 80"><path d="M58.42,29.43H21.58c-.55,0-1-.45-1-1v-5c0-.55,.45-1,1-1H58.42c.55,0,1,.45,1,1v5c0,.55-.45,1-1,1Zm-35.85-2H57.42v-3H22.58v3Z"/><g><path d="M49.65,72.89H30.35c-.99,0-1.84-.74-1.98-1.73l-5.89-42.6c-.04-.29,.05-.58,.24-.79,.19-.22,.46-.34,.75-.34H56.53c.29,0,.56,.12,.75,.34,.19,.22,.28,.51,.24,.79l-5.89,42.6c-.14,.98-.99,1.73-1.98,1.73Zm0-2v0h0ZM24.61,29.43l5.74,41.46h19.3l5.74-41.46H24.61Z"/><polygon points="52.74 55.83 27.26 55.83 24.9 38.82 55.1 38.82 52.74 55.83"/></g><path d="M45.31,24.39c-.12,0-.24-.02-.35-.06-.52-.19-.78-.77-.58-1.29l6.19-16.48c.2-.52,.77-.78,1.29-.58,.52,.19,.78,.77,.58,1.29l-6.19,16.48c-.15,.4-.53,.65-.94,.65Z"/></svg>