<?xml version="1.0" encoding="UTF-8"?><svg id="_イヤー_1" xmlns="http://www.w3.org/2000/svg" viewBox="0 0 80 80"><g><path d="M41.68,51.17l22.96-22.96c.39-.39,1.02-.39,1.41,0l3.84,3.84c.39,.39,.39,1.02,0,1.41l-22.96,22.96"/><path d="M46.93,57.42c-.26,0-.51-.1-.71-.29-.39-.39-.39-1.02,0-1.41l22.96-22.96-3.84-3.84-22.96,22.96c-.39,.39-1.02,.39-1.41,0s-.39-1.02,0-1.41l22.96-22.96c.78-.78,2.05-.78,2.83,0l3.84,3.84c.38,.38,.59,.88,.59,1.41s-.21,1.04-.59,1.41l-22.96,22.96c-.2,.2-.45,.29-.71,.29Z"/></g><path d="M39.4,59.7c-.26,0-.52-.1-.71-.29-.26-.26-.36-.64-.25-1l2.28-7.53c.16-.53,.72-.83,1.25-.67,.53,.16,.83,.72,.67,1.25l-1.74,5.74,5.74-1.74c.53-.16,1.09,.14,1.25,.67,.16,.53-.14,1.09-.67,1.25l-7.53,2.28c-.1,.03-.19,.04-.29,.04Z"/><path d="M39.4,59.7c-.26,0-.52-.1-.71-.29-.26-.26-.36-.64-.25-1l1.07-3.52c.1-.34,.39-.61,.74-.69,.35-.08,.72,.04,.96,.3l2.27,2.51c.23,.25,.31,.61,.22,.94-.09,.33-.35,.59-.67,.69l-3.34,1.01c-.1,.03-.19,.04-.29,.04Zm1.51-2.54v.04h.03l-.03-.04Z"/><path d="M56.41,69H17.53c-1.1,0-2-.9-2-2V15c0-1.1,.9-2,2-2H56.41c1.1,0,2,.9,2,2v15.23c0,.55-.45,1-1,1s-1-.45-1-1V15H17.53v52H56.41v-14.99c0-.55,.45-1,1-1s1,.45,1,1v14.99c0,1.1-.9,2-2,2Z"/><g><path d="M45.17,28.27H28.76c-.55,0-1-.45-1-1s.45-1,1-1h16.41c.55,0,1,.45,1,1s-.45,1-1,1Z"/><path d="M45.17,37.11H28.76c-.55,0-1-.45-1-1s.45-1,1-1h16.41c.55,0,1,.45,1,1s-.45,1-1,1Z"/><path d="M36.97,45.95h-8.2c-.55,0-1-.45-1-1s.45-1,1-1h8.2c.55,0,1,.45,1,1s-.45,1-1,1Z"/></g><path d="M46.93,57.42c-.26,0-.51-.1-.71-.29l-5.25-5.25c-.39-.39-.39-1.02,0-1.41s1.02-.39,1.41,0l5.25,5.25c.39,.39,.39,1.02,0,1.41-.2,.2-.45,.29-.71,.29Z"/></svg>