<svg xmlns="http://www.w3.org/2000/svg" width="43.122" height="70.573" viewBox="0 0 43.122 70.573"><g transform="translate(-550.26 -7070.427)"><path d="M36.488,0,0,13.279V56.4l6.634,4.22v9.952L16.585,57l26.537-9.659V4.218Z" transform="translate(550.26 7070.427)" fill="#0f0f0f"/><path d="M19.305,46.118a5.252,5.252,0,0,1-3.788.106,5.147,5.147,0,0,1-2.691-2.577,10.835,10.835,0,0,1-1-5,16.037,16.037,0,0,1,.985-5.679,14.044,14.044,0,0,1,2.665-4.5,9.321,9.321,0,0,1,3.751-2.626,5.354,5.354,0,0,1,3.814-.127,4.993,4.993,0,0,1,2.664,2.558,11.034,11.034,0,0,1,.974,4.993,16.376,16.376,0,0,1-.974,5.717,13.827,13.827,0,0,1-2.651,4.507,9.318,9.318,0,0,1-3.752,2.625m-.05-3.481a4.869,4.869,0,0,0,2.1-1.505A7.57,7.57,0,0,0,22.728,38.4a13.673,13.673,0,0,0,.493-3.876,10.217,10.217,0,0,0-.493-3.5,2.836,2.836,0,0,0-1.389-1.721,2.757,2.757,0,0,0-2.109.039,4.873,4.873,0,0,0-2.072,1.483,7.419,7.419,0,0,0-1.376,2.7,13.544,13.544,0,0,0-.493,3.863,10.314,10.314,0,0,0,.493,3.53,2.913,2.913,0,0,0,1.376,1.739,2.656,2.656,0,0,0,2.1-.021" transform="translate(550.26 7070.427)" fill="#fff"/><path d="M27.918,26.3v-3.3l6.643-2.417v3.3ZM31.4,41.407V21.723l3.409-1.241V40.166Z" transform="translate(550.26 7070.427)" fill="#fff"/></g></svg>