<?xml version="1.0" encoding="UTF-8"?><svg id="_イヤー_1" xmlns="http://www.w3.org/2000/svg" viewBox="0 0 80 80"><defs><style>.cls-1{fill:#fff;}</style></defs><g><g><circle cx="56.88" cy="55.02" r="10.5"/><path d="M56.87,66.52c-6.34,0-11.5-5.16-11.5-11.5s5.16-11.5,11.5-11.5,11.5,5.16,11.5,11.5-5.16,11.5-11.5,11.5Zm0-21c-5.24,0-9.5,4.26-9.5,9.5s4.26,9.5,9.5,9.5,9.5-4.26,9.5-9.5-4.26-9.5-9.5-9.5Z"/></g><g><path class="cls-1" d="M56.86,54.22c-.25,0-.51-.1-.7-.29l-2.75-2.73c-.39-.39-.39-1.02,0-1.41,.39-.39,1.02-.39,1.41,0l2.05,2.03,2.01-2.01c.39-.39,1.02-.39,1.42,0,.39,.39,.39,1.02,0,1.41l-2.72,2.71c-.2,.19-.45,.29-.71,.29Z"/><path class="cls-1" d="M56.85,61.25c-.55,0-1-.45-1-1v-7.04c0-.55,.45-1,1-1s1,.45,1,1v7.04c0,.55-.45,1-1,1Z"/><path class="cls-1" d="M59.95,55.38h-6.15c-.55,0-1-.45-1-1s.45-1,1-1h6.15c.55,0,1,.45,1,1s-.45,1-1,1Z"/><path class="cls-1" d="M59.95,58.53h-6.15c-.55,0-1-.45-1-1s.45-1,1-1h6.15c.55,0,1,.45,1,1s-.45,1-1,1Z"/></g></g><g><path d="M24.95,21.39c-.55,0-1-.45-1-1v-4.72c0-.55,.45-1,1-1s1,.45,1,1v4.72c0,.55-.45,1-1,1Z"/><path d="M45.34,21.39c-.55,0-1-.45-1-1v-4.72c0-.55,.45-1,1-1s1,.45,1,1v4.72c0,.55-.45,1-1,1Z"/></g><path d="M27.04,37.83h-3.28c-.55,0-1-.45-1-1s.45-1,1-1h3.28c.55,0,1,.45,1,1s-.45,1-1,1Z"/><path d="M36.93,37.83h-3.28c-.55,0-1-.45-1-1s.45-1,1-1h3.28c.55,0,1,.45,1,1s-.45,1-1,1Z"/><path d="M46.83,37.83h-3.28c-.55,0-1-.45-1-1s.45-1,1-1h3.28c.55,0,1,.45,1,1s-.45,1-1,1Z"/><path d="M27.04,45.7h-3.28c-.55,0-1-.45-1-1s.45-1,1-1h3.28c.55,0,1,.45,1,1s-.45,1-1,1Z"/><path d="M36.93,45.7h-3.28c-.55,0-1-.45-1-1s.45-1,1-1h3.28c.55,0,1,.45,1,1s-.45,1-1,1Z"/><path d="M46.83,45.7h-3.28c-.55,0-1-.45-1-1s.45-1,1-1h3.28c.55,0,1,.45,1,1s-.45,1-1,1Z"/><path d="M41.52,57.93H14.22c-.55,0-1-.45-1-1V19.15c0-.55,.45-1,1-1H56.37c.55,0,1,.45,1,1v20.47c0,.55-.45,1-1,1s-1-.45-1-1V20.15H15.22V55.93h26.3c.55,0,1,.45,1,1s-.45,1-1,1Z"/><g><rect x="14.5" y="19.15" width="41.75" height="8.09"/><path d="M56.75,27.75H14v-9.09H56.75v9.09Zm-41.75-1H55.75v-7.09H15v7.09Z"/></g></svg>