<?xml version="1.0" encoding="UTF-8"?><svg id="_イヤー_1" xmlns="http://www.w3.org/2000/svg" viewBox="0 0 80 80"><defs><style>.cls-1{fill:#231815;}</style></defs><path class="cls-1" d="M38.03,43.96c-.33,0-.65-.13-.89-.37l-5.21-5.23c-.49-.49-.49-1.28,0-1.77,.49-.49,1.28-.49,1.77,0l4.32,4.34,8.27-8.3c.49-.49,1.28-.49,1.77,0,.49,.49,.49,1.28,0,1.77l-9.16,9.19c-.23,.24-.55,.37-.89,.37Z"/><path class="cls-1" d="M63.26,54.9H16.79c-.69,0-1.25-.56-1.25-1.25V21.85c0-.69,.56-1.25,1.25-1.25H63.26c.69,0,1.25,.56,1.25,1.25v31.8c0,.69-.56,1.25-1.25,1.25Zm-45.22-2.5H62.01V23.1H18.04v29.3Z"/><g><path class="cls-1" d="M12.59,53.65h54.82v2.49c0,1.1-.9,2-2,2H14.59c-1.1,0-2-.9-2-2v-2.49h0Z"/><path class="cls-1" d="M65.41,59.4H14.59c-1.79,0-3.25-1.46-3.25-3.25v-2.5c0-.69,.56-1.25,1.25-1.25h54.82c.69,0,1.25,.56,1.25,1.25v2.5c0,1.79-1.46,3.25-3.25,3.25Zm-51.57-4.5v1.25c0,.41,.34,.75,.75,.75h50.82c.41,0,.75-.34,.75-.75v-1.25H13.84Z"/></g></svg>