<svg xmlns="http://www.w3.org/2000/svg" width="43.122" height="70.573" viewBox="0 0 43.122 70.573"><g transform="translate(-606.239 -7070.427)"><path d="M92.467,0,55.979,13.279V56.4l6.634,4.22v9.952L72.564,57,99.1,47.341V4.218Z" transform="translate(550.26 7070.427)" fill="#0f0f0f"/><path d="M72.608,46.118a5.252,5.252,0,0,1-3.788.106,5.147,5.147,0,0,1-2.691-2.577,10.835,10.835,0,0,1-1-5,16.037,16.037,0,0,1,.985-5.679,14.044,14.044,0,0,1,2.665-4.5,9.321,9.321,0,0,1,3.751-2.626,5.354,5.354,0,0,1,3.814-.127,4.993,4.993,0,0,1,2.664,2.558,11.034,11.034,0,0,1,.974,4.993,16.376,16.376,0,0,1-.974,5.717,13.828,13.828,0,0,1-2.651,4.507,9.318,9.318,0,0,1-3.752,2.625m-.05-3.481a4.869,4.869,0,0,0,2.1-1.505A7.57,7.57,0,0,0,76.031,38.4a13.673,13.673,0,0,0,.493-3.876,10.217,10.217,0,0,0-.493-3.5,2.836,2.836,0,0,0-1.389-1.721,2.757,2.757,0,0,0-2.109.039,4.873,4.873,0,0,0-2.072,1.483,7.419,7.419,0,0,0-1.376,2.7,13.544,13.544,0,0,0-.493,3.863,10.314,10.314,0,0,0,.493,3.53,2.913,2.913,0,0,0,1.376,1.739,2.656,2.656,0,0,0,2.1-.021" transform="translate(550.26 7070.427)" fill="#fff"/><path d="M81.3,40.464l6.668-10.183q.708-1.1,1.162-1.935a7.722,7.722,0,0,0,.644-1.48,4.508,4.508,0,0,0,.19-1.287,1.82,1.82,0,0,0-.708-1.675,2.054,2.054,0,0,0-1.843-.028A5.077,5.077,0,0,0,85.351,25.3a10.6,10.6,0,0,0-1.68,2.739l-2.349-1.357a12.929,12.929,0,0,1,2.615-3.961,9.771,9.771,0,0,1,3.649-2.351A5.62,5.62,0,0,1,90.643,20a3.045,3.045,0,0,1,2,1.359,5.265,5.265,0,0,1,.707,2.907,9.491,9.491,0,0,1-.265,2.28,10.065,10.065,0,0,1-.9,2.272q-.633,1.2-1.693,2.787l-4.876,7.263Zm0,2.184V40.464l2.931-2.186,9.5-3.457v3.305Z" transform="translate(550.26 7070.427)" fill="#fff"/></g></svg>