<svg xmlns="http://www.w3.org/2000/svg" xmlns:xlink="http://www.w3.org/1999/xlink" width="155.906" height="258.879" viewBox="0 0 155.906 258.879"><defs><clipPath id="a"><rect width="155.906" height="258.878" fill="none"/></clipPath></defs><g transform="translate(-1585 17428.879)"><rect width="111" height="111" transform="translate(1610 -17378)" fill="#fff"/><g transform="translate(1585 -17428.879)"><g clip-path="url(#a)"><path d="M127.27,0,0,46.28V198.642l28.346,21.582v38.654l43.61-54.512L155.9,173.839V21.477ZM76.157,151.879c-12.879,3.451-25.393,1.7-31.832-2.769a1.415,1.415,0,0,1-.121-2.033l9.233-13.045a1.369,1.369,0,0,1,1.823-.61,29.018,29.018,0,0,0,21.626,2.71c8.626-2.311,13.486-7.622,13.486-13.454,0-4.86-2.916-7.116-12.757-5.815l-4.374.564C56.475,119.611,47.12,114.22,47.12,99.641c0-15.187,11.42-28.331,29.28-33.117C87.334,63.6,97.54,64.14,104.465,67.63c.729.291.851.745.243,1.758L97.3,82.43c-.486.737-1.093,1.022-1.7.82a29.588,29.588,0,0,0-19.2-1.174c-7.29,1.953-11.056,6.729-11.056,11.953,0,4.738,3.4,6.864,12.878,5.661l4.374-.564c17.009-2.25,26,3.117,26,18.061S97.54,146.149,76.157,151.879"/></g></g></g></svg>