<svg xmlns="http://www.w3.org/2000/svg" width="479.905" height="170" viewBox="0 0 479.905 170"><g transform="translate(-675.315 -264)"><path d="M23.84-3.023h6.087v-25.09H42.359V-34.2H23.84Zm25.847.5c.776,11.142,11.351,13.567,17.847,13.567,13.722,0,16.559-8.924,16.559-13.1,0-6.242-3.972-8.873-15.682-12.9-5.67-1.908-8-2.734-8-5.623,0-1.857,1.6-3.611,6.242-3.611,4.127,0,5.107,1.238,5.678,1.96a5.772,5.772,0,0,1,1.341,3.095H83.22c-.568-3.456-2.119-12.741-16.3-12.741-14.651,0-16.095,9.13-16.095,12.329,0,7.944,5.88,9.9,15.217,13.1,6.706,2.269,8.512,3.2,8.512,5.417,0,4.127-5.519,4.127-6.913,4.127-4.333,0-7.944-.98-8.408-5.623ZM90.854,9.906h9.285V-3.868h11.919c10.111,0,15.115-6.087,15.115-13.257,0-9.079-7.222-13.618-15.115-13.618h-21.2Zm9.285-33.273h10.885c3.869,0,6.6,2.269,6.6,6.035,0,4.23-3.147,6.087-6.6,6.087H100.142Zm72.117,12.948c0-14.5-10.059-21.46-20.428-21.46-10.472,0-20.428,7.068-20.428,21.46s9.956,21.46,20.428,21.46c10.371,0,20.43-6.964,20.43-21.46ZM151.831-24.141c3.766,0,10.885,1.96,10.885,13.722C162.715,1.5,155.442,3.3,151.831,3.3c-4.075,0-10.885-2.269-10.885-13.722C140.946-22.181,148.116-24.141,151.831-24.141Zm44.928.98H210.48v-7.583H173.7v7.583h13.72V9.906h9.337Zm33.993,6.79h-6.087V8.719H212.232v6.087h18.519Z" transform="translate(651.475 419.193)"/><path d="M273.573,348.313V323.419h-8.314V317.05c4.91-.147,8.412-.973,10.21-7.05h7.148v38.313Z" transform="translate(410.056 15.848)"/><path d="M303.1,346.153v2.612h-7.458V310H329.7v38.766h-7.458v-2.612Zm19.145-21.616V316.6H303.1v7.934Zm0,14.822v-8.408H303.1v8.408Z" transform="translate(411.294 15.848)"/><path d="M337.425,324.638v-6.52H356.77v-8.377l7.211.432c.475.043.82.043.82.475,0,.389-.475.648-.82.777v6.693h8.938v6.52h-8.938v17.79c0,2.159-.475,3.713-2.85,4.836-.432.216-2.634,1.209-6.952.993a18.087,18.087,0,0,0-2.5-7.3,13.8,13.8,0,0,0,3.238.475c1.77,0,1.857-.82,1.857-2.548v-7.816A45.355,45.355,0,0,1,341.354,343.9a19.587,19.587,0,0,0-4.663-5.484,39.894,39.894,0,0,0,16.754-13.774Z" transform="translate(413.854 15.372)"/><path d="M404.495,311.8a21.511,21.511,0,0,0,2.979-.259l5.009,4.059a8.028,8.028,0,0,0-1.425,2.289c-4.318,10.536-5.225,12.652-8.377,16.883-3.67,4.879-7.945,8.42-15.977,12.868a26.043,26.043,0,0,0-5.354-5.268c9.8-4.707,16.452-9.111,21.849-24.181H376.946V311.8Z" transform="translate(415.994 15.468)"/><path d="M431.787,347.324H425.4V332.3a52.745,52.745,0,0,1-8.722,4.361,20.555,20.555,0,0,0-4.318-5.1A46.906,46.906,0,0,0,435.5,315.932l5.052,4.016c.173.173.345.3.345.518,0,.345-.389.345-.6.345a2.1,2.1,0,0,1-.518-.043,66.318,66.318,0,0,1-7.988,7.254Z" transform="translate(417.877 15.701)"/><path d="M448.627,318.736v-6.477h22.065a11.926,11.926,0,0,0,2.979-.345l3.368,3.67a13.212,13.212,0,0,0-1.641,2.764,74.365,74.365,0,0,1-5.484,10.579c1.814,1.382,9.715,7.945,12.954,11.831-1.425,1.641-3.757,4.232-5.182,5.872a59.209,59.209,0,0,0-11.615-12.306c-4.145,4.966-10.925,10.536-16.581,12.911a19.29,19.29,0,0,0-4.923-5.916,36.3,36.3,0,0,0,14.034-8.636c4.922-4.75,6.693-8.981,8.636-13.947Z" transform="translate(419.59 15.487)"/><path d="M521.872,324.256l3.152,3.152a61.009,61.009,0,0,1-10.19,12.868,14.725,14.725,0,0,0-5.182-4.188,25.247,25.247,0,0,0,5.484-5.743h-7.081v13.213c0,4.836-3.023,5.4-9.975,5.268a14.634,14.634,0,0,0-2.116-6.347,18.32,18.32,0,0,0,3.5.345c1.857,0,2.073-.6,2.073-2.548v-9.931H484.953v-6.088h17.833a77.864,77.864,0,0,0-9.413-3.8l4.1-4.491h-8.463v-5.527h28.2l2.418,3.325a63.016,63.016,0,0,1-9.456,7.384,18.853,18.853,0,0,1,2.418,1.468c-.648.475-1.166.82-2.116,1.641Zm-23.922-8.291c.777.3,4.145,1.468,6.434,2.375a27.433,27.433,0,0,0,3.2-2.375Z" transform="translate(421.737 15.409)"/><path d="M544.184,315.886a.805.805,0,0,1,.475.648c0,.561-.82.6-1.252.6-.389.475-1.986,2.807-2.332,3.282-.475.648-2.5,3.368-5.484,6.779.561-.043,3.67-.345,4.059-.389a18.427,18.427,0,0,0-.864-2.85l3.627-.907a1.293,1.293,0,0,0-.345-.173,37.858,37.858,0,0,0,6.866-13.515l6.088,1.9a.91.91,0,0,1,.561.691c0,.389-.734.648-1.123.777-.345.734-.518,1.166-1.3,2.979h11.7c.172,6.736.215,22.8-2.03,28.758-1.684,4.361-5.7,4.707-9.845,4.491-.043-1.036-.13-2.893-2.72-7.038a20,20,0,0,0,3.8.648c2.893,0,3.67-2.979,4.016-4.836a97.362,97.362,0,0,0,.734-16.408h-8.506a30.493,30.493,0,0,1-2.936,4.62,18.536,18.536,0,0,0-3.411-2.2,79.927,79.927,0,0,1,1.986,7.945,32.561,32.561,0,0,0-5.268,1.641c-.13-1.079-.13-1.209-.173-1.555l-1.814.173v17.013h-5.829V335.706a2.62,2.62,0,0,1-.777.432,43.294,43.294,0,0,1-1.727,10.147,25.14,25.14,0,0,0-5.4-.95c1.814-3.929,1.986-10.406,2.029-11.011l5.527.475a.44.44,0,0,1,.345.216v-2.591c-1.123.086-3.843.259-4.75.389a6.333,6.333,0,0,1-.389.734.564.564,0,0,1-.518.259.811.811,0,0,1-.777-.82l-.561-5.657c1.079-.043,2.245-.086,3.5-.173.82-.95,1.727-2.073,1.986-2.418a33.693,33.693,0,0,0-2.548-2.418c-2.72-2.332-3.066-2.591-3.584-3.066l3.5-4.966c.95.691,1.209.907,1.6,1.209a34.7,34.7,0,0,0,3.411-6.822l5.009,2.418c.3.13.475.3.475.6,0,.432-.259.475-1.3.561a69.841,69.841,0,0,1-3.929,6.391c.691.648.82.777,1.166,1.079a41.073,41.073,0,0,0,4.016-6.607Zm.734,17.574a40.639,40.639,0,0,0,1.9,9.413,22.5,22.5,0,0,0-5.225,1.77,46.993,46.993,0,0,1-1.814-9.975Zm7.47-8.247a38.049,38.049,0,0,1,3.8,9.456c-1.814.777-5.225,2.289-5.441,2.375a40.647,40.647,0,0,0-3.843-9.931Z" transform="translate(423.865 15.315)"/><path d="M590.361,310.069l7.3.389c.345,0,.648.13.648.432a.891.891,0,0,1-.648.777v7.038h7.513v6.736h-7.556c-.216,6.52-.95,8.636-1.339,9.759a23.4,23.4,0,0,1-12.738,13.559,20.394,20.394,0,0,0-5.311-5.354c7.557-2.677,10.061-7.772,10.579-8.9,1.252-2.807,1.382-5.57,1.555-9.068h-7.47v9.629h-7v-9.629h-8.2v-6.736h8.2v-8.377l6.779.389c.389.043.907.043.907.518,0,.3-.345.475-.691.691v6.779h7.47Z" transform="translate(426.137 15.39)"/><path d="M641.6,324.788v7.341H609.855v-7.341Z" transform="translate(428.378 16.172)"/><path d="M678.234,322.446c.259.216.518.432.518.648a.662.662,0,0,1-.648.518,5.838,5.838,0,0,1-.863-.13c-5.786,3.454-15.546,7.168-22.41,8.161v6.866c0,3.2,1.036,3.2,8.42,3.2a115.927,115.927,0,0,0,15.933-.864,29.185,29.185,0,0,0-.908,6.909c-1.553.086-3.756.216-7.686.216-17.315,0-18.135-.475-19.992-1.511-2.5-1.382-2.85-3.886-2.85-7.211V311.349l7.083.432c.518.043.864.043.864.432,0,.432-.432.69-.864.95v12.22c4.706-.993,12.348-3.454,17.7-7.686ZM675,312.428a41.8,41.8,0,0,1,4.4,4.232c-.259.216-1.9,1.641-2.807,2.461-.606-.561-2.72-2.677-4.62-4.145Zm4.016-3.368a34.107,34.107,0,0,1,4.361,4.232c-.777.648-2.117,1.9-2.893,2.634a51.332,51.332,0,0,0-4.492-4.318Z" transform="translate(430.394 15.336)"/><path d="M688.627,319.736v-6.477h22.065a11.93,11.93,0,0,0,2.979-.345l3.367,3.67a13.227,13.227,0,0,0-1.64,2.764,74.477,74.477,0,0,1-5.484,10.579c1.813,1.382,9.714,7.945,12.954,11.831-1.425,1.641-3.757,4.232-5.182,5.872a59.194,59.194,0,0,0-11.617-12.306c-4.144,4.966-10.925,10.536-16.581,12.911a19.274,19.274,0,0,0-4.922-5.916,36.306,36.306,0,0,0,14.035-8.636c4.921-4.75,6.693-8.982,8.636-13.947Z" transform="translate(432.351 15.541)"/><path d="M274.343,261.661V290.41h-5.717v-1.355H266.51V292.4h-5.674V261.661Zm-5.717,10.967v-5.59H266.51v5.59Zm-2.116,5.419v5.758h2.116v-5.758Zm28.283,1.736h3.768V285.2h-3.768v7.663c0,4.234-3.006,5-9.315,4.657a10.709,10.709,0,0,0-2.245-6.266c-.507.423-2.456,2.285-2.878,2.667a36.021,36.021,0,0,0-4.828-6.054l3.261-2.667h-3.133v-5.419h12.7v-3.26H275.063V271.1h7.96v-2.625h-6.9v-5.5h6.9v-4.319l7.155.169a.457.457,0,0,1,.466.509c0,.339-.127.422-1.058.8v2.837h7.79v5.5h-7.79V271.1h9.272v5.42h-3.345c.085.127.127.169.127.3,0,.169-.085.381-.847.8Zm-6.436,5.419h-7.071a24.144,24.144,0,0,1,3.81,4.487c-.508.424-.677.551-1.737,1.441a36.417,36.417,0,0,0,3.939.508c.889,0,1.058-.466,1.058-1.44Z" transform="translate(414.979 6.53)"/><path d="M319.2,259.435v14.734H307.723v23.244h-5.928V259.435Zm-5.8,5.462V263.16h-5.672V264.9Zm-5.672,3.3v1.779H313.4V268.2Zm9.061,24.642V294.2h-5.505V276.243h18.334v15.2a18.967,18.967,0,0,0,2.329.212c1.1,0,1.143-.423,1.143-1.482v-16H321.4V259.435h17.444v32.9c0,4.276-1.482,5-7.833,5.377a14.238,14.238,0,0,0-1.44-4.869Zm7.325-10.288v-1.863h-7.325v1.863Zm-7.325,3.938V288.4h7.325V286.49ZM332.873,264.9V263.16h-5.631V264.9Zm-5.631,3.3v1.779h5.631V268.2Z" transform="translate(418.382 6.556)"/><path d="M364.491,283.843v2.286h16.343v5.377H364.491v6.224H358.14v-6.224H342.262v-5.377H358.14v-2.286H346.031V266.568H348.7a34.626,34.626,0,0,0-3.685-4.954l5.039-2.921a39.9,39.9,0,0,1,5.123,6.647c-.847.423-1.482.763-2.244,1.228h5.757a32.693,32.693,0,0,0-3.726-6.393l5.463-2.667a30.864,30.864,0,0,1,4.615,7.875,27.627,27.627,0,0,0-2.667,1.186H366.4a52.28,52.28,0,0,0,4.615-8.551l6.309,2.625a.51.51,0,0,1,.339.465c0,.423-.508.508-1.228.55a51.64,51.64,0,0,1-2.965,4.911h3.261v17.275ZM352,273.258h6.14v-1.821H352Zm6.14,5.715v-1.9H352v1.9Zm12.531-7.535h-6.181v1.821h6.181Zm0,5.631h-6.181v1.9h6.181Z" transform="translate(420.563 6.493)"/><path d="M393.193,268.409c.3.085.509.17.509.467,0,.338-.34.676-.848,1.059v27.478h-6.011V276.454a21.022,21.022,0,0,1-1.949,2.2c-1.9-3.981-2.879-5-3.641-5.758,5.547-5.165,8.511-13.8,8.807-14.734l6.14,2.37a.685.685,0,0,1,.508.593c0,.55-.466.635-1.312.805-1.651,3.259-2.457,4.826-3.26,6.138Zm28.792,22.06v5.758H394.04v-5.758h12.32a101.209,101.209,0,0,0,4.489-18.841l6.52,1.143c.466.085.72.3.72.592,0,.423-.254.551-1.1.848-1.524,7.324-3.472,13.549-4.319,16.258Zm-.931-25.193v5.673h-26v-5.673h9.061v-6.52l6.9.381a.622.622,0,0,1,.677.551c0,.507-.254.761-1.058.931v4.656Zm-19.264,7.283a64.281,64.281,0,0,1,4.319,15.073c-1.355.3-2.372.549-6.437,1.778a48.643,48.643,0,0,0-3.9-14.861Z" transform="translate(422.729 6.515)"/><path d="M461.882,266.384c-10.459-.169-19.518,9.23-19.518,16.089,0,4.911,6.224,7.325,11.982,7.452a57.1,57.1,0,0,0-3.175,7.706c-3.429-.931-15.582-4.319-15.582-14.438,0-7.833,6.056-13.465,7.79-14.565a115.3,115.3,0,0,0-17.528,2.667l-.974-7.96a137.214,137.214,0,0,0,18.842-.974,101.96,101.96,0,0,0,16.978-3.091Zm-7.028,6.011a26.28,26.28,0,0,1,3.938,4.531c-1.185.847-1.778,1.313-3.26,2.54a34.282,34.282,0,0,0-3.768-4.785Zm4.446-3.006a26.915,26.915,0,0,1,3.768,4.447c-1.058.8-1.778,1.44-3.091,2.625a31.3,31.3,0,0,0-3.768-4.784Z" transform="translate(425.238 6.551)"/><path d="M488.423,260.541c.467.17.721.3.721.677,0,.593-.721.721-1.228.763-.466.719-.975,1.567-2.5,4.446,2.244.211,4.4.3,5.292.3s1.482-.042,2.075-.085a31.073,31.073,0,0,0-1.864,6.69,52,52,0,0,1-8-.38c-.507,1.143-1.1,2.667-1.523,3.726a64.9,64.9,0,0,0,9.4.634c-.8,2.287-1.482,4.955-1.821,6.267-2.583-.169-5.5-.423-9.484-1.016a13.808,13.808,0,0,0-.467,3.43c0,5.165,4.785,5.165,6.86,5.165,1.821,0,8.214,0,8.214-6.139,0-2.71-1.948-6.31-2.159-6.6a20.27,20.27,0,0,0,6.393-2.287c1.016,1.864,2.921,5.886,2.921,9.611,0,9.316-9.823,11.475-15.369,11.475-8.511,0-13.21-4.4-13.21-10.627a20.9,20.9,0,0,1,.634-5.124,35.346,35.346,0,0,1-5.5-1.566l1.439-6.267a39.779,39.779,0,0,0,5.716,1.822c.169-.551.467-1.482,1.27-3.768a36.843,36.843,0,0,1-6.309-2.118l1.27-6.563a53.006,53.006,0,0,0,7.5,2.329c.422-1.143,2.456-6.309,2.878-7.367Z" transform="translate(427.617 6.508)"/><path d="M542.258,273.27l3.091,3.091a59.8,59.8,0,0,1-9.992,12.618,14.438,14.438,0,0,0-5.081-4.107,24.776,24.776,0,0,0,5.377-5.631h-6.944V292.2c0,4.743-2.964,5.293-9.781,5.166a14.339,14.339,0,0,0-2.074-6.224,17.961,17.961,0,0,0,3.428.339c1.822,0,2.033-.594,2.033-2.5V279.24H506.058V273.27h17.486a76.689,76.689,0,0,0-9.23-3.726l4.022-4.4h-8.3v-5.419h27.647l2.371,3.26a61.814,61.814,0,0,1-9.273,7.241,18.321,18.321,0,0,1,2.372,1.44,26.044,26.044,0,0,0-2.075,1.608ZM518.8,265.14c.763.3,4.065,1.44,6.31,2.33a26.957,26.957,0,0,0,3.133-2.33Z" transform="translate(430.862 6.565)"/><path d="M564.914,265.03a.788.788,0,0,1,.467.634c0,.551-.8.594-1.228.594-.382.465-1.949,2.752-2.286,3.217-.466.636-2.456,3.3-5.377,6.647.549-.042,3.6-.338,3.98-.38a17.986,17.986,0,0,0-.848-2.794l3.558-.89a1.268,1.268,0,0,0-.339-.169,37.111,37.111,0,0,0,6.732-13.252l5.97,1.863a.9.9,0,0,1,.55.677c0,.381-.72.635-1.1.763-.339.719-.509,1.142-1.27,2.921H585.2c.169,6.6.212,22.355-1.991,28.2-1.65,4.276-5.588,4.615-9.652,4.4-.042-1.016-.127-2.837-2.667-6.9a19.609,19.609,0,0,0,3.726.635c2.837,0,3.6-2.922,3.938-4.742a95.458,95.458,0,0,0,.72-16.089h-8.341a29.875,29.875,0,0,1-2.879,4.529,18.222,18.222,0,0,0-3.345-2.158,78.3,78.3,0,0,1,1.948,7.79,31.784,31.784,0,0,0-5.165,1.609c-.127-1.058-.127-1.185-.17-1.524l-1.778.169v16.682h-5.715v-13a2.565,2.565,0,0,1-.763.423,42.4,42.4,0,0,1-1.694,9.95,24.639,24.639,0,0,0-5.292-.931c1.778-3.853,1.948-10.2,1.99-10.8l5.42.466a.432.432,0,0,1,.339.212v-2.54c-1.1.085-3.769.253-4.658.38a6.138,6.138,0,0,1-.381.721.552.552,0,0,1-.507.254.8.8,0,0,1-.763-.8l-.549-5.547c1.057-.042,2.2-.085,3.428-.169.805-.931,1.695-2.031,1.949-2.371a33.444,33.444,0,0,0-2.5-2.37c-2.667-2.286-3.006-2.54-3.515-3.007l3.431-4.868c.93.676,1.185.888,1.565,1.185a33.972,33.972,0,0,0,3.345-6.691l4.911,2.371c.3.127.467.3.467.594,0,.422-.255.465-1.27.549a68.511,68.511,0,0,1-3.853,6.267c.676.634.8.761,1.143,1.058A40.237,40.237,0,0,0,560,262.32Zm.721,17.232a39.8,39.8,0,0,0,1.863,9.23,22.078,22.078,0,0,0-5.124,1.736,46.019,46.019,0,0,1-1.777-9.78Zm7.325-8.087a37.29,37.29,0,0,1,3.726,9.272c-1.778.761-5.123,2.243-5.335,2.329a39.82,39.82,0,0,0-3.769-9.739Z" transform="translate(434.115 6.508)"/><path d="M625.882,266.384c-10.458-.169-19.517,9.23-19.517,16.089,0,4.911,6.223,7.325,11.981,7.452a57.111,57.111,0,0,0-3.175,7.706c-3.428-.931-15.581-4.319-15.581-14.438,0-7.833,6.055-13.465,7.79-14.565a115.3,115.3,0,0,0-17.528,2.667l-.974-7.96a137.2,137.2,0,0,0,18.841-.974,101.96,101.96,0,0,0,16.978-3.091Zm-7.028,6.011a26.282,26.282,0,0,1,3.938,4.531c-1.185.847-1.778,1.313-3.26,2.54a34.282,34.282,0,0,0-3.768-4.785Zm4.446-3.006a26.913,26.913,0,0,1,3.768,4.447c-1.058.8-1.777,1.44-3.091,2.625a31.234,31.234,0,0,0-3.768-4.784Z" transform="translate(437.594 6.551)"/><path d="M650.037,258.737a24.543,24.543,0,0,0,.719,4.574,30.439,30.439,0,0,0,7.368-3.134,51.386,51.386,0,0,0,2.328,5.165,31.226,31.226,0,0,1-7.874,3.473c.549,1.313.634,1.44.8,1.82a35.7,35.7,0,0,0,8.891-4.614c.466.93,2.837,4.7,3.3,5.462a38.02,38.02,0,0,1-9.272,4.7,40.937,40.937,0,0,0,6.393,8.087l-3.938,4.193a22.984,22.984,0,0,0-12.067-3.556c-1.778,0-5.546.592-5.546,3.048,0,2.032,2.286,3.472,7.367,3.472,1.948,0,7.071-.042,11.093-1.737a19.24,19.24,0,0,0-.466,4.531,9.478,9.478,0,0,0,.127,1.821,35.909,35.909,0,0,1-10.627,1.355c-10.881,0-14.4-5.208-14.4-9.273,0-4.529,4.149-8.044,11.262-8.044a44.847,44.847,0,0,1,5.885.467A21.446,21.446,0,0,1,649.91,278a75.733,75.733,0,0,1-14.142,1.482,25.7,25.7,0,0,1-2.71-.127l-.72-6.266c2.583.127,4.233.168,5.165.168a51.259,51.259,0,0,0,9.739-.974c-.213-.465-.34-.846-.805-1.862a81.3,81.3,0,0,1-10.585,1.016l-1.355-5.929a51.009,51.009,0,0,0,9.7-.676c-.974-2.54-1.27-3.558-1.736-4.955Z" transform="translate(439.532 6.533)"/><path d="M700.1,263.64c-2.879,1.9-9.442,8.467-10.373,9.442a22.959,22.959,0,0,1,5.081-.636c5.758,0,11.686,3.641,11.686,11.136,0,9.315-8.849,13.379-16.174,13.379-5.462,0-10.754-2.159-10.754-7.283,0-4.192,3.9-6.774,8.3-6.774,3.98,0,8.129,2.245,9.1,6.225,2.794-1.4,2.794-4.657,2.794-5,0-1.015-.339-6.181-6.9-6.181-7.154,0-11.22,4.192-17.1,10.33l-5.081-4.953c4.869-3.387,14.311-12.7,17.147-16.471-1.355.3-2.794.636-11.262,1.482l-1.016-6.647c1.651.042,13.887.169,21.17-2.667ZM687.355,288.2c-1.44,0-1.778.805-1.778,1.525,0,1.609,2.371,2.244,3.811,2.244a7.009,7.009,0,0,0,2.117-.339A4.158,4.158,0,0,0,687.355,288.2Z" transform="translate(438.784 6.543)"/></g></svg>