<svg xmlns="http://www.w3.org/2000/svg" width="43.122" height="70.573" viewBox="0 0 43.122 70.573"><g transform="translate(-661.428 -7070.427)"><path d="M147.657,0,111.169,13.279V56.4l6.634,4.22v9.952L127.754,57l26.537-9.659V4.218Z" transform="translate(550.26 7070.427)" fill="#0f0f0f"/><path d="M127.8,46.118a5.252,5.252,0,0,1-3.788.106,5.147,5.147,0,0,1-2.691-2.577,10.835,10.835,0,0,1-1-5,16.037,16.037,0,0,1,.985-5.679,14.044,14.044,0,0,1,2.665-4.5,9.321,9.321,0,0,1,3.751-2.626,5.354,5.354,0,0,1,3.814-.127,4.993,4.993,0,0,1,2.664,2.558,11.034,11.034,0,0,1,.974,4.993,16.376,16.376,0,0,1-.974,5.717,13.828,13.828,0,0,1-2.651,4.507,9.318,9.318,0,0,1-3.752,2.625m-.05-3.481a4.869,4.869,0,0,0,2.1-1.505,7.57,7.57,0,0,0,1.376-2.727,13.672,13.672,0,0,0,.493-3.876,10.217,10.217,0,0,0-.493-3.5,2.836,2.836,0,0,0-1.389-1.721,2.757,2.757,0,0,0-2.109.039,4.873,4.873,0,0,0-2.072,1.483,7.419,7.419,0,0,0-1.376,2.7,13.544,13.544,0,0,0-.493,3.863,10.314,10.314,0,0,0,.493,3.53,2.913,2.913,0,0,0,1.376,1.739,2.656,2.656,0,0,0,2.1-.021" transform="translate(550.26 7070.427)" fill="#fff"/><path d="M142.12,40.9a7.187,7.187,0,0,1-3.284.482,4.1,4.1,0,0,1-2.5-1.176l2.274-3.32a2.219,2.219,0,0,0,1.439.821,3.9,3.9,0,0,0,2.021-.232,5.166,5.166,0,0,0,1.743-1.041,4.767,4.767,0,0,0,1.136-1.562,4.532,4.532,0,0,0,.4-1.9,2.591,2.591,0,0,0-.417-1.57,1.771,1.771,0,0,0-1.188-.688,3.842,3.842,0,0,0-1.881.278,7.66,7.66,0,0,0-.96.435,6.252,6.252,0,0,0-.859.536l1.516-2.736q.631-.453,1.25-.818a7,7,0,0,1,1.149-.559,3.945,3.945,0,0,1,2.463-.182,2.942,2.942,0,0,1,1.743,1.382,5.506,5.506,0,0,1,.644,2.859,8.548,8.548,0,0,1-.846,3.71,10.373,10.373,0,0,1-2.337,3.161A10.229,10.229,0,0,1,142.12,40.9m-4.8-14.941v-3.3l11.242-4.09v2.183l-2.829,2.15Zm2.729,6.007V29.759l4.546-7.507,3.967-1.5-4.725,7.711Z" transform="translate(550.26 7070.427)" fill="#fff"/></g></svg>