<?xml version="1.0" encoding="UTF-8"?><svg id="_イヤー_1" xmlns="http://www.w3.org/2000/svg" viewBox="0 0 80 80"><defs><style>.cls-1{fill:#231815;}</style></defs><path class="cls-1" d="M51.67,67.25s-.08,0-.13,0l-30.62-3.11c-.64-.06-1.12-.6-1.12-1.24V17.11c0-.64,.49-1.18,1.12-1.24l30.62-3.11c.35-.04,.7,.08,.96,.32,.26,.24,.41,.57,.41,.93v52c0,.35-.15,.69-.41,.93-.23,.21-.53,.32-.84,.32Zm-29.37-5.49l28.12,2.85V15.38l-28.12,2.85V61.76Z"/><g><polyline class="cls-1" points="51.67 17.45 58.96 17.45 58.96 62.55 51.67 62.55"/><path class="cls-1" d="M58.96,63.8h-7.29c-.69,0-1.25-.56-1.25-1.25s.56-1.25,1.25-1.25h6.04V18.7h-6.04c-.69,0-1.25-.56-1.25-1.25s.56-1.25,1.25-1.25h7.29c.69,0,1.25,.56,1.25,1.25V62.55c0,.69-.56,1.25-1.25,1.25Z"/></g><g><ellipse class="cls-1" cx="45.14" cy="40" rx="1.9" ry="2.59"/><path class="cls-1" d="M45.14,43.84c-1.77,0-3.15-1.69-3.15-3.84s1.38-3.84,3.15-3.84,3.15,1.69,3.15,3.84-1.38,3.84-3.15,3.84Zm0-5.18c-.22,0-.65,.52-.65,1.34s.43,1.34,.65,1.34,.65-.52,.65-1.34-.43-1.34-.65-1.34Z"/></g></svg>