<?xml version="1.0" encoding="UTF-8"?><svg id="_イヤー_1" xmlns="http://www.w3.org/2000/svg" viewBox="0 0 80 80"><g><rect x="14.63" y="57.52" width="15.78" height="5.47" transform="translate(63.45 10.62) rotate(60)"/><path d="M24.1,69.71c-.11,0-.22-.01-.32-.04-.32-.08-.59-.29-.76-.58l-7.89-13.66c-.34-.6-.14-1.36,.46-1.71l4.74-2.74c.29-.17,.63-.21,.95-.12,.32,.08,.59,.29,.76,.58l7.89,13.66c.34,.6,.14,1.36-.46,1.71l-4.74,2.74c-.19,.11-.41,.17-.62,.17Zm-6.18-14.46l6.64,11.5,2.58-1.49-6.64-11.5-2.58,1.49Z"/></g><path d="M37.89,64.35c-4.56,0-10.34-.15-10.69-.16-.43-.01-.83-.25-1.05-.62l-4.8-8.32c-.17-.29-.21-.63-.12-.95,.07-.28,1.87-6.79,6.64-8.29,3.99-1.26,7.67-.33,8.59-.06h6.53c.42-.03,2.11-.08,3.31,1.05,.54,.5,1.16,1.43,1.11,2.99-.01,.39-.07,.74-.15,1.05,2-.88,5-2.3,7.28-3.87,1.4-.96,3.31-2.27,6-2.27,2.04,0,3.44,1.38,4.07,2.67,.61,1.25,.59,2.49-.05,3.32-1.03,1.33-18.31,13.01-21.85,13.34-.96,.09-2.76,.12-4.81,.12Zm-9.92-2.64c2.64,.06,11.98,.27,14.5,.04,2.45-.23,18.71-10.82,20.12-12.4-.02-.03-.06-.51-.47-1.07-.24-.33-.77-.88-1.59-.88-1.77,0-3.07,.79-4.58,1.83-3.97,2.72-9.69,4.94-9.93,5.03-.13,.05-.27,.08-.41,.08l-9.24,.29c-.69,.03-1.24-.49-1.29-1.17-.05-.67,.45-1.26,1.12-1.33l6.6-.69c.09,0,.17,0,.26,0,.23,.02,.98,0,1.41-.39,.27-.24,.41-.62,.43-1.16,.03-.75-.23-.99-.31-1.07-.4-.38-1.19-.4-1.44-.38-.04,0-.08,0-.12,0h-6.77c-.14,0-.27-.02-.41-.07-.03-.01-3.53-1.16-7.24,0-2.85,.9-4.37,4.73-4.83,6.08l4.18,7.24Z"/><path d="M39.99,10.29c-8.17,0-14.82,6.65-14.82,14.82s6.65,14.82,14.82,14.82,14.82-6.65,14.82-14.82-6.65-14.82-14.82-14.82Zm3.98,16.82c.69,0,1.25,.56,1.25,1.25s-.56,1.25-1.25,1.25h-2.75v2.26c0,.69-.56,1.25-1.25,1.25s-1.25-.56-1.25-1.25v-2.26h-2.7c-.69,0-1.25-.56-1.25-1.25s.56-1.25,1.25-1.25h2.7v-1.57h-2.7c-.69,0-1.25-.56-1.25-1.25s.56-1.25,1.25-1.25h2.45l-2.92-2.9c-.49-.49-.49-1.28,0-1.77,.49-.49,1.28-.49,1.77,0l2.67,2.65,2.63-2.62c.49-.49,1.28-.49,1.77,0,.49,.49,.49,1.28,0,1.77l-2.88,2.87h2.48c.69,0,1.25,.56,1.25,1.25s-.56,1.25-1.25,1.25h-2.75v1.57h2.75Z"/></svg>